<svg id="Layer_1" data-name="Layer 1" xmlns="http://www.w3.org/2000/svg" viewBox="0 0 130 130"><defs><style>.cls-1{fill:none;stroke:#2d6086;stroke-width:2px;}.cls-2{fill:#2d6086;fill-rule:evenodd;}</style></defs><title>benefit-lowercostchannels</title><g id="Icons_Circle" data-name="Icons/Circle"><circle id="Oval-2" class="cls-1" cx="65" cy="65" r="64"/></g><path class="cls-2" d="M51.43,31.39H82.7A4.6,4.6,0,0,1,86,32.74h0A4.6,4.6,0,0,1,87.32,36V92.49A4.6,4.6,0,0,1,86,95.75h0a4.58,4.58,0,0,1-3.26,1.36H51.43a4.63,4.63,0,0,1-4.62-4.62V36a4.63,4.63,0,0,1,4.62-4.62ZM62.89,92h8.38a.77.77,0,0,0,0-1.54H62.89a.77.77,0,0,0,0,1.54ZM51.5,37.65a.77.77,0,0,0-.77.77V87a.77.77,0,0,0,.77.77H82.63A.77.77,0,0,0,83.4,87V38.42a.77.77,0,0,0-.77-.77Zm30.36,1.54H52.27V86.24H81.86V39.19Zm.84-6.26H51.43A3.08,3.08,0,0,0,48.36,36V92.49a3.08,3.08,0,0,0,3.08,3.08H82.7a3.08,3.08,0,0,0,2.18-.9h0a3.07,3.07,0,0,0,.9-2.18V36a3.06,3.06,0,0,0-.9-2.17h0A3.07,3.07,0,0,0,82.7,32.93Z" transform="translate(0 0)"/></svg>