<svg id="Layer_1" data-name="Layer 1" xmlns="http://www.w3.org/2000/svg" viewBox="0 0 130 130"><defs><style>.cls-1{fill:none;stroke:#2d6086;stroke-width:2px;}.cls-2{fill:#2d6086;fill-rule:evenodd;}</style></defs><title>benefit-flexibilityandagility</title><g id="Icons_Circle" data-name="Icons/Circle"><circle id="Oval-2" class="cls-1" cx="65" cy="65" r="64"/></g><path class="cls-2" d="M80,77.59l-6.12-6.13a.54.54,0,0,1,0-.77L80,64.57a16.35,16.35,0,0,0,5-12h0v0a.54.54,0,0,1,.54-.55h4.8l-9.6-14.26L71.07,52h4.78a.55.55,0,0,1,.55.55V53a7.22,7.22,0,0,1-2.18,5.26l-6.41,6.41a.54.54,0,0,1-.77,0l-6.41-6.41A7.23,7.23,0,0,1,58.45,53v-.42A.55.55,0,0,1,59,52h4.78l-9.6-14.26L44.58,52h4.8a.55.55,0,0,1,.54.55v0h0v0a16.34,16.34,0,0,0,5,12L61,70.7a.55.55,0,0,1,0,.77l-6.13,6.13a16.33,16.33,0,0,0-5,12V90a2.16,2.16,0,0,0,.64,1.54h0a2.17,2.17,0,0,0,1.54.64h4.16A2.19,2.19,0,0,0,58.45,90v-.8A7.4,7.4,0,0,1,59,86.32v0a7.44,7.44,0,0,1,1.62-2.38L67,77.5a.54.54,0,0,1,.77,0l6.41,6.41,0,0a7.22,7.22,0,0,1,2.15,5.23V90A2.17,2.17,0,0,0,77,91.52h0a2.16,2.16,0,0,0,1.54.64h4.16A2.19,2.19,0,0,0,84.92,90v-.4a16.33,16.33,0,0,0-5-12Zm-5-6.51,5.74,5.74A17.44,17.44,0,0,1,86,89.57V90a3.28,3.28,0,0,1-3.27,3.27H78.58a3.27,3.27,0,0,1-2.31-1h0a3.26,3.26,0,0,1-1-2.31v-.8a6.1,6.1,0,0,0-1.83-4.47l0,0-6-6-6,6a6.31,6.31,0,0,0-1.39,2v0a6.31,6.31,0,0,0-.47,2.44V90a3.28,3.28,0,0,1-3.27,3.27H52.1a3.26,3.26,0,0,1-2.3-1h0a3.26,3.26,0,0,1-1-2.31v-.4a17.46,17.46,0,0,1,5.28-12.75l5.74-5.74-5.74-5.74a17.4,17.4,0,0,1-5.27-12.23H43.55a.53.53,0,0,1-.3-.09.55.55,0,0,1-.15-.76L53.72,36.5a.53.53,0,0,1,.15-.15.54.54,0,0,1,.76.15L65.22,52.23a.54.54,0,0,1-.42.89H59.54a6.08,6.08,0,0,0,1.86,4.37l6,6,6-6a6.35,6.35,0,0,0,1.4-2,6.24,6.24,0,0,0,.46-2.32H70a.53.53,0,0,1-.3-.09.55.55,0,0,1-.15-.76L80.22,36.5a.5.5,0,0,1,.15-.15.54.54,0,0,1,.76.15L91.72,52.23a.56.56,0,0,1,.12.34.55.55,0,0,1-.55.54H86a17.71,17.71,0,0,1-1.32,6.39,17.94,17.94,0,0,1-4,5.84Z" transform="translate(0 0)"/></svg>