<svg id="Layer_1" data-name="Layer 1" xmlns="http://www.w3.org/2000/svg" viewBox="0 0 130 130"><defs><style>.cls-1{fill:none;stroke:#2d6086;stroke-width:2px;}.cls-2{fill:#2d6086;fill-rule:evenodd;}</style></defs><title>benefit-automation</title><g id="Icons_Circle" data-name="Icons/Circle"><circle id="Oval-2" class="cls-1" cx="65" cy="65" r="64"/></g><path class="cls-2" d="M74.59,41.31l2.22.92h0a1,1,0,0,0,.42.08,1,1,0,0,0,.41-.11l4.71-2.43a2.28,2.28,0,0,1,2.67.42h0l4.91,4.91a2.28,2.28,0,0,1,.42,2.68l-2.43,4.71a.94.94,0,0,0,0,.83l.94,2.26a1,1,0,0,0,.24.35,1,1,0,0,0,.37.21l5,1.61a2.3,2.3,0,0,1,1.16.83h0a2.28,2.28,0,0,1,.44,1.36v6.93a2.28,2.28,0,0,1-.44,1.35h0a2.29,2.29,0,0,1-1.16.83l-5,1.61a.94.94,0,0,0-.61.56l0,0-.92,2.22a1,1,0,0,0-.08.42,1,1,0,0,0,.11.41L90.36,79a2.28,2.28,0,0,1-.42,2.68L85,86.61a2.29,2.29,0,0,1-1.27.65A2.26,2.26,0,0,1,82.36,87l-4.71-2.43a1,1,0,0,0-.41-.11,1,1,0,0,0-.42.08l-2.26.94a.93.93,0,0,0-.56.61l-1.61,5h0a2.28,2.28,0,0,1-2.19,1.6H63.27a2.28,2.28,0,0,1-2.19-1.6v0l-1.6-5a1,1,0,0,0-.21-.37,1,1,0,0,0-.35-.24h0l-2.23-.92a1,1,0,0,0-.42-.08,1,1,0,0,0-.41.11L51.11,87a2.26,2.26,0,0,1-1.4.23,2.3,2.3,0,0,1-1.27-.65L43.52,81.7l0,0A2.28,2.28,0,0,1,43.11,79l2.43-4.71a.94.94,0,0,0,0-.83l-.94-2.26a1,1,0,0,0-.24-.35,1,1,0,0,0-.37-.21L39,69a2.3,2.3,0,0,1-1.16-.83l0,0a2.3,2.3,0,0,1-.41-1.31V59.93a2.29,2.29,0,0,1,.44-1.36h0A2.29,2.29,0,0,1,39,57.75l5-1.61h0a1,1,0,0,0,.37-.21.93.93,0,0,0,.24-.35l.93-2.26a1,1,0,0,0,.08-.42,1,1,0,0,0-.11-.41l-2.43-4.71a2.28,2.28,0,0,1,.42-2.68h0l4.91-4.91a2.28,2.28,0,0,1,2.68-.42l4.71,2.43a.95.95,0,0,0,.83,0h0l2.26-.93h0a.95.95,0,0,0,.54-.6v0l1.6-5h0A2.28,2.28,0,0,1,63.27,34H70.2a2.29,2.29,0,0,1,2.19,1.6v0l1.61,5a1,1,0,0,0,.21.37,1.06,1.06,0,0,0,.35.24ZM66.74,77.83A14.43,14.43,0,1,0,56.53,73.6a14.37,14.37,0,0,0,10.21,4.23Zm11.13-3.3a15.75,15.75,0,1,0-11.13,4.61,15.71,15.71,0,0,0,11.13-4.61ZM76.32,43.44l-2.22-.92,0,0a2.22,2.22,0,0,1-.82-.56,2.25,2.25,0,0,1-.49-.86l-1.6-5v0a1,1,0,0,0-.94-.69H63.27a1,1,0,0,0-.94.69h0l-1.6,5v0a2.26,2.26,0,0,1-.49.86,2.2,2.2,0,0,1-.78.55l0,0-2.26.94h0a2.24,2.24,0,0,1-1.93-.08l-4.71-2.43a1,1,0,0,0-.61-.1,1,1,0,0,0-.54.28L44.45,46h0a1,1,0,0,0-.28.54,1,1,0,0,0,.11.6l2.43,4.71a2.33,2.33,0,0,1,.26,1,2.29,2.29,0,0,1-.18,1l-.94,2.26a2.24,2.24,0,0,1-1.42,1.31h0l-5,1.61a1,1,0,0,0-.5.36h0a1,1,0,0,0-.18.59v6.93a1,1,0,0,0,.16.56l0,0a1,1,0,0,0,.5.36l5,1.61a2.23,2.23,0,0,1,1.42,1.31L46.78,73a2.24,2.24,0,0,1-.08,1.93l-2.43,4.71a1,1,0,0,0-.11.61,1,1,0,0,0,.26.51l0,0,4.91,4.91a1,1,0,0,0,1.15.18l4.71-2.43a2.23,2.23,0,0,1,1.93-.08l2.23.92h0a2.22,2.22,0,0,1,.82.56,2.31,2.31,0,0,1,.49.86l1.6,5v0a1,1,0,0,0,.35.5,1,1,0,0,0,.59.18H70.2a1,1,0,0,0,.94-.69h0l1.61-5a2.23,2.23,0,0,1,1.31-1.42l2.26-.94a2.23,2.23,0,0,1,1.93.08L83,85.86a1,1,0,0,0,.6.11,1,1,0,0,0,.54-.28L89,80.77a1,1,0,0,0,.18-1.15l-2.43-4.71a2.26,2.26,0,0,1-.26-1,2.3,2.3,0,0,1,.18-1l.92-2.23v0a2.21,2.21,0,0,1,.56-.81,2.25,2.25,0,0,1,.86-.49l5-1.61a1,1,0,0,0,.5-.36h0a1,1,0,0,0,.18-.59V59.93a1,1,0,0,0-.19-.58h0a1,1,0,0,0-.5-.35l-5-1.61a2.33,2.33,0,0,1-.86-.49,2.26,2.26,0,0,1-.56-.82l-.94-2.26a2.24,2.24,0,0,1,.08-1.93l2.43-4.71A1,1,0,0,0,89,46l-4.91-4.91h0A1,1,0,0,0,83,40.93l-4.71,2.43a2.28,2.28,0,0,1-1,.26,2.26,2.26,0,0,1-1-.18Zm-3.92-7.77-.43.79a.65.65,0,0,0,.43-.79ZM66.74,56.84a6.54,6.54,0,0,0-4.64,1.92h0a6.55,6.55,0,0,0,0,9.23l0,0a6.55,6.55,0,0,0,9.23,0l0,0a6.56,6.56,0,0,0-4.64-11.2Zm3.71,2.85a5.24,5.24,0,0,0-7.42,0h0a5.25,5.25,0,0,0,0,7.39l0,0a5.25,5.25,0,0,0,7.39,0l0,0a5.25,5.25,0,0,0,0-7.42Z" transform="translate(0 0)"/></svg>