<svg id="Layer_1" data-name="Layer 1" xmlns="http://www.w3.org/2000/svg" viewBox="0 0 130 130"><defs><style>.cls-1{fill:none;stroke:#2d6086;stroke-width:2px;}.cls-2{fill:#2d6086;fill-rule:evenodd;}</style></defs><title>benefit-tailorproducts</title><g id="Icons_Circle" data-name="Icons/Circle"><circle id="Oval-2" class="cls-1" cx="65" cy="65" r="64"/></g><path class="cls-2" d="M66.06,57.83a.73.73,0,0,1,1.46,0v4.93a6.25,6.25,0,0,1,3.69,1.79h0a6.27,6.27,0,0,1,.74,8l4,4a.73.73,0,1,1-1,1L71,73.64a6.26,6.26,0,0,1-8.3.11l-3.81,3.81a.73.73,0,1,1-1-1l3.86-3.85a6.27,6.27,0,0,1,4.35-9.91V57.83Zm4.37-14.5a12.16,12.16,0,0,1,8.51,11.6.73.73,0,0,1-.73.73H55.36a.73.73,0,0,1-.73-.73,12.17,12.17,0,0,1,8.51-11.6A7.75,7.75,0,0,1,61.3,31a7.75,7.75,0,1,1,11,11h0a7.8,7.8,0,0,1-1.84,1.36Zm3.92,4a10.67,10.67,0,0,0-7.56-3.13h0a10.69,10.69,0,0,0-10.66,10H77.45a10.67,10.67,0,0,0-3.11-6.83ZM71.23,32a6.29,6.29,0,1,0-4.45,10.73h0a6.27,6.27,0,0,0,4.44-1.84h0a6.3,6.3,0,0,0,0-8.89ZM91.29,77.83a7.86,7.86,0,0,0,1.84-1.36h0A7.74,7.74,0,1,0,84,77.83a12.17,12.17,0,0,0-8.51,11.6.73.73,0,0,0,.73.73H99.08a.73.73,0,0,0,.73-.73,12.17,12.17,0,0,0-8.52-11.6Zm3.92,4a10.65,10.65,0,0,1,3.11,6.82H77a10.69,10.69,0,0,1,10.66-10h0a10.65,10.65,0,0,1,7.56,3.13ZM92.1,66.54a6.29,6.29,0,0,1,0,8.89h0a6.26,6.26,0,0,1-4.44,1.84h0A6.29,6.29,0,1,1,92.1,66.54ZM49.56,77.83a7.82,7.82,0,0,0,1.83-1.36h0a7.75,7.75,0,1,0-11,0,7.8,7.8,0,0,0,1.84,1.36,12.17,12.17,0,0,0-8.51,11.6.73.73,0,0,0,.73.73H57.34a.73.73,0,0,0,.73-.73,12.17,12.17,0,0,0-8.51-11.6Zm3.92,4a10.65,10.65,0,0,1,3.11,6.82H35.25a10.7,10.7,0,0,1,10.66-10h0a10.65,10.65,0,0,1,7.56,3.13ZM50.36,66.54a6.29,6.29,0,0,1,0,8.89h0a6.27,6.27,0,0,1-4.44,1.84h0a6.29,6.29,0,1,1,4.45-10.74Zm16.43-2.36h0a4.81,4.81,0,0,0-3.58,8h0l.06.06.12.13h0a4.81,4.81,0,1,0,3.4-8.21Z" transform="translate(0 0)"/></svg>