<svg id="Layer_1" data-name="Layer 1" xmlns="http://www.w3.org/2000/svg" viewBox="0 0 130 130"><defs><style>.cls-1{fill:none;stroke:#2d6086;stroke-width:2px;}.cls-2{fill:#2d6086;fill-rule:evenodd;}</style></defs><title>benefit-cloudtechnology</title><g id="Icons_Circle" data-name="Icons/Circle"><circle id="Oval-2" class="cls-1" cx="65" cy="65" r="64"/></g><path class="cls-2" d="M44.21,86.62A12.48,12.48,0,0,1,34.76,66h0a12.47,12.47,0,0,1,7.08-4.11,17.47,17.47,0,0,1,31.23-7.72,12.4,12.4,0,0,1,1.27-.25,12.62,12.62,0,0,1,1.79-.13,12.48,12.48,0,0,1,11.65,8A12.48,12.48,0,0,1,98.47,74.17h0A12.48,12.48,0,0,1,86,86.64h0l-41.77,0Zm56.21-32.8,3.21-1A26.2,26.2,0,0,0,74.37,35.93l.75,3.27a22.84,22.84,0,0,1,25.29,14.62Zm4.34.17a.72.72,0,0,0,.48-.89h0A27.63,27.63,0,0,0,73.36,34.66a.72.72,0,0,0-.56.85h0l1.08,4.67a.72.72,0,0,0,.86.54h0a21.41,21.41,0,0,1,24.54,14.2.72.72,0,0,0,.89.46l4.57-1.4ZM91.17,57.18h0a.72.72,0,0,0,.89.43l4.56-1.48h0a.72.72,0,0,0,.43-.91A19.22,19.22,0,0,0,75.64,42.79h-.06a.72.72,0,0,0-.56.85l1,4.66a.72.72,0,0,0,.82.59,13,13,0,0,1,14.33,8.28Zm-5-8a14.39,14.39,0,0,1,6,6.82l3.2-1A17.8,17.8,0,0,0,76.58,44.09l.7,3.29a14.39,14.39,0,0,1,8.93,1.84ZM36.4,82a11,11,0,0,0,7.81,3.24l41.77,0h0a11,11,0,0,0,11-11h0a11,11,0,0,0-9.83-11,.72.72,0,0,1-.63-.49,11.05,11.05,0,0,0-10.45-7.47,11.2,11.2,0,0,0-1.59.12,11,11,0,0,0-1.55.34h0a.72.72,0,0,1-.79-.27,16,16,0,0,0-29,7.15.72.72,0,0,1-.61.67,11,11,0,0,0-6.72,3.72h0a11,11,0,0,0,.56,15Z" transform="translate(0 0)"/></svg>