<svg id="Layer_1" data-name="Layer 1" xmlns="http://www.w3.org/2000/svg" viewBox="0 0 130 130"><defs><style>.cls-1{fill:none;stroke:#2d6086;stroke-width:2px;}.cls-2{fill:#2d6086;fill-rule:evenodd;}</style></defs><title>benefit-maximizesell</title><g id="Icons_Circle" data-name="Icons/Circle"><circle id="Oval-2" class="cls-1" cx="65" cy="65" r="64"/></g><path class="cls-2" d="M52.8,74.09,63.29,60.52a.69.69,0,0,1,.58-.27h12.3l3.71-6.56-1.19.58a.7.7,0,0,1-.93-.32L75.18,48.7a.7.7,0,0,1,.29-.92h0l16.71-9a.7.7,0,0,1,.95.28.71.71,0,0,1,.08.33h0v19a.7.7,0,0,1-.7.7h0l-5.78.2a.69.69,0,0,1-.72-.67l0-1-5.41,9.5a.7.7,0,0,1-.63.36L67,67.51l-8.51,11a2.45,2.45,0,0,1-3.44.44l-1.85-1.43h0a2.46,2.46,0,0,1-.44-3.44Zm41,10.44H47.14V37.9a.7.7,0,0,0-1.4,0V84.53h-7.5a.7.7,0,1,0,0,1.4h7.5v7.5a.7.7,0,0,0,1.4,0v-7.5H93.77a.7.7,0,1,0,0-1.4ZM64.18,61.64,53.92,74.93h0a1,1,0,0,0-.21.78,1.06,1.06,0,0,0,.4.7h0L56,77.85a1.05,1.05,0,0,0,1.48-.19l8.72-11.28h0a.7.7,0,0,1,.55-.27l12.82,0L85.95,54.8a.69.69,0,0,1,.58-.36.7.7,0,0,1,.73.68l.1,2.76,4.46-.16V40.59L76.73,48.69l2,4,2.59-1.27h0a.71.71,0,0,1,.65,0,.7.7,0,0,1,.26,1l-5,8.85a.7.7,0,0,1-.62.38Z" transform="translate(0 0)"/></svg>